<svg xmlns="http://www.w3.org/2000/svg" xmlns:xlink="http://www.w3.org/1999/xlink" contentStyleType="text/css" data-diagram-type="DESCRIPTION" height="1711px" preserveAspectRatio="none" style="width:849px;height:1711px;background:#FFFFFF;" version="1.1" viewBox="0 0 849 1711" width="849px" zoomAndPan="magnify"><?plantuml 1.2026.3?><defs/><g><g class="title" data-source-line="3"><text fill="#0B4D54" font-family="Arial" font-size="20" font-weight="700" lengthAdjust="spacing" textLength="672.4219" x="84.7891" y="28.7598">Diagramme de cas d&#8217;utilisation &#8212; syst&#232;me interne de gestion h&#244;teli&#232;re</text></g><!--cluster Application de gestion h?teli?re--><g class="cluster" data-qualified-name="Application de gestion h.teli.re" data-source-line="10" id="ent0006"><rect fill="#F8FAFC" height="1647" rx="4" ry="4" style="stroke:#0B4D54;stroke-width:1;" width="287" x="548" y="50.998"/><text fill="#1F2937" font-family="Arial" font-size="14" font-weight="700" lengthAdjust="spacing" textLength="212.3584" x="585.3208" y="66.1299">Application de gestion h&#244;teli&#232;re</text></g><!--entity Login--><g class="entity" data-qualified-name="Application de gestion h.teli.re.Login" data-source-line="11" id="ent0007"><ellipse cx="691.3515" cy="507.9683" fill="#F8FAFC" rx="60.3515" ry="14.4703" style="stroke:#0B4D54;stroke-width:0.5;"/><text fill="#1F2937" font-family="Arial" font-size="14" lengthAdjust="spacing" textLength="81.7168" x="650.4931" y="512.5177">S&#8217;authentifier</text></g><!--entity Logout--><g class="entity" data-qualified-name="Application de gestion h.teli.re.Logout" data-source-line="12" id="ent0008"><ellipse cx="691.4361" cy="1364.1853" fill="#F8FAFC" rx="66.4361" ry="15.6872" style="stroke:#0B4D54;stroke-width:0.5;"/><text fill="#1F2937" font-family="Arial" font-size="14" lengthAdjust="spacing" textLength="98.0684" x="642.4019" y="1368.7346">Se d&#233;connecter</text></g><!--entity Profile--><g class="entity" data-qualified-name="Application de gestion h.teli.re.Profile" data-source-line="13" id="ent0009"><ellipse cx="691.6397" cy="929.0978" fill="#F8FAFC" rx="85.6397" ry="23.5998" style="stroke:#0B4D54;stroke-width:0.5;"/><text fill="#1F2937" font-family="Arial" font-size="14" lengthAdjust="spacing" textLength="129.165" x="627.0572" y="928.844">Consulter et modifier</text><text fill="#1F2937" font-family="Arial" font-size="14" lengthAdjust="spacing" textLength="56.8066" x="663.2364" y="944.9427">son profil</text></g><!--entity ProfileSecurity--><g class="entity" data-qualified-name="Application de gestion h.teli.re.ProfileSecurity" data-source-line="14" id="ent0010"><ellipse cx="691.658" cy="829.2297" fill="#F8FAFC" rx="106.658" ry="23.7316" style="stroke:#0B4D54;stroke-width:0.5;"/><text fill="#1F2937" font-family="Arial" font-size="14" lengthAdjust="spacing" textLength="164.1924" x="609.5619" y="829.171">Modifier son mot de passe</text><text fill="#1F2937" font-family="Arial" font-size="14" lengthAdjust="spacing" textLength="69.2754" x="657.0203" y="845.2696">et sa photo</text></g><!--entity Dashboard--><g class="entity" data-qualified-name="Application de gestion h.teli.re.Dashboard" data-source-line="15" id="ent0011"><ellipse cx="691.7192" cy="1436.8419" fill="#F8FAFC" rx="99.7192" ry="22.3438" style="stroke:#0B4D54;stroke-width:0.5;"/><text fill="#1F2937" font-family="Arial" font-size="14" lengthAdjust="spacing" textLength="175.8955" x="603.7714" y="1441.3912">Consulter le tableau de bord</text></g><!--entity Clients--><g class="entity" data-qualified-name="Application de gestion h.teli.re.Clients" data-source-line="16" id="ent0012"><ellipse cx="691.3997" cy="1518.9779" fill="#F8FAFC" rx="95.3997" ry="24.4798" style="stroke:#0B4D54;stroke-width:0.5;"/><text fill="#1F2937" font-family="Arial" font-size="14" lengthAdjust="spacing" textLength="101.1445" x="640.8275" y="1513.5995">G&#233;rer les clients</text><text fill="#1F2937" font-family="Arial" font-size="14" lengthAdjust="spacing" textLength="138.5029" x="622.1483" y="1529.6982">particuliers et soci&#233;t&#233;s</text></g><!--entity Rooms--><g class="entity" data-qualified-name="Application de gestion h.teli.re.Rooms" data-source-line="17" id="ent0013"><ellipse cx="691.5811" cy="1110.8415" fill="#F8FAFC" rx="82.5811" ry="23.8434" style="stroke:#0B4D54;stroke-width:0.5;"/><text fill="#1F2937" font-family="Arial" font-size="14" lengthAdjust="spacing" textLength="122.9307" x="630.1158" y="1110.2007">G&#233;rer les chambres</text><text fill="#1F2937" font-family="Arial" font-size="14" lengthAdjust="spacing" textLength="66.1514" x="658.5054" y="1126.2993">et leur &#233;tat</text></g><!--entity CurrentOccupation--><g class="entity" data-qualified-name="Application de gestion h.teli.re.CurrentOccupation" data-source-line="18" id="ent0014"><ellipse cx="691.3743" cy="1010.9215" fill="#F8FAFC" rx="90.3743" ry="23.4235" style="stroke:#0B4D54;stroke-width:0.5;"/><text fill="#1F2937" font-family="Arial" font-size="14" lengthAdjust="spacing" textLength="137.7441" x="622.5022" y="1010.9522">Consulter l&#8217;occupation</text><text fill="#1F2937" font-family="Arial" font-size="14" lengthAdjust="spacing" textLength="48.2549" x="667.2469" y="1027.0509">actuelle</text></g><!--entity Tariffs--><g class="entity" data-qualified-name="Application de gestion h.teli.re.Tariffs" data-source-line="19" id="ent0015"><ellipse cx="691.5458" cy="1594.2072" fill="#F8FAFC" rx="64.0458" ry="15.2092" style="stroke:#0B4D54;stroke-width:0.5;"/><text fill="#1F2937" font-family="Arial" font-size="14" lengthAdjust="spacing" textLength="91.7998" x="645.6459" y="1598.7565">G&#233;rer les tarifs</text></g><!--entity Reservations--><g class="entity" data-qualified-name="Application de gestion h.teli.re.Reservations" data-source-line="20" id="ent0016"><ellipse cx="691.2575" cy="1662.9496" fill="#F8FAFC" rx="82.7575" ry="18.9515" style="stroke:#0B4D54;stroke-width:0.5;"/><text fill="#1F2937" font-family="Arial" font-size="14" lengthAdjust="spacing" textLength="137.7168" x="622.3991" y="1667.4989">G&#233;rer les r&#233;servations</text></g><!--entity Payments--><g class="entity" data-qualified-name="Application de gestion h.teli.re.Payments" data-source-line="21" id="ent0017"><ellipse cx="691.4638" cy="582.0128" fill="#F8FAFC" rx="97.4638" ry="24.0148" style="stroke:#0B4D54;stroke-width:0.5;"/><text fill="#1F2937" font-family="Arial" font-size="14" lengthAdjust="spacing" textLength="144.7305" x="619.0986" y="581.1039">Enregistrer et consulter</text><text fill="#1F2937" font-family="Arial" font-size="14" lengthAdjust="spacing" textLength="86.3789" x="648.2744" y="597.2025">les paiements</text></g><!--entity Complaints--><g class="entity" data-qualified-name="Application de gestion h.teli.re.Complaints" data-source-line="22" id="ent0018"><ellipse cx="691.604" cy="660.2188" fill="#F8FAFC" rx="84.104" ry="19.2208" style="stroke:#0B4D54;stroke-width:0.5;"/><text fill="#1F2937" font-family="Arial" font-size="14" lengthAdjust="spacing" textLength="140.8271" x="621.1904" y="664.7682">G&#233;rer les r&#233;clamations</text></g><!--entity Equipment--><g class="entity" data-qualified-name="Application de gestion h.teli.re.Equipment" data-source-line="23" id="ent0019"><ellipse cx="691.4514" cy="1293.7883" fill="#F8FAFC" rx="84.4514" ry="19.2903" style="stroke:#0B4D54;stroke-width:0.5;"/><text fill="#1F2937" font-family="Arial" font-size="14" lengthAdjust="spacing" textLength="141.627" x="620.638" y="1298.3376">G&#233;rer les &#233;quipements</text></g><!--entity EquipmentImpact--><g class="entity" data-qualified-name="Application de gestion h.teli.re.EquipmentImpact" data-source-line="24" id="ent0020"><ellipse cx="691.3335" cy="1196.2165" fill="#F8FAFC" rx="68.3335" ry="25.7184" style="stroke:#0B4D54;stroke-width:0.5;"/><text fill="#1F2937" font-family="Arial" font-size="14" lengthAdjust="spacing" textLength="91.7998" x="645.4336" y="1192.6478">D&#233;finir l&#8217;impact</text><text fill="#1F2937" font-family="Arial" font-size="14" lengthAdjust="spacing" textLength="92.5928" x="645.0372" y="1208.7465">sur la chambre</text></g><!--entity Lists--><g class="entity" data-qualified-name="Application de gestion h.teli.re.Lists" data-source-line="25" id="ent0021"><ellipse cx="691.3844" cy="741.8749" fill="#F8FAFC" rx="127.3844" ry="27.8769" style="stroke:#0B4D54;stroke-width:0.5;"/><text fill="#1F2937" font-family="Arial" font-size="14" lengthAdjust="spacing" textLength="173.4756" x="604.6466" y="736.6432">Rechercher, filtrer, imprimer</text><text fill="#1F2937" font-family="Arial" font-size="14" lengthAdjust="spacing" textLength="203.0889" x="589.84" y="752.7418">et exporter les listes compatibles</text></g><!--entity Users--><g class="entity" data-qualified-name="Application de gestion h.teli.re.Users" data-source-line="27" id="ent0022"><ellipse cx="691.2633" cy="440.1507" fill="#F8FAFC" rx="78.7633" ry="18.1527" style="stroke:#0B4D54;stroke-width:0.5;"/><text fill="#1F2937" font-family="Arial" font-size="14" lengthAdjust="spacing" textLength="128.3789" x="627.0738" y="444.7">G&#233;rer les utilisateurs</text></g><!--entity UserEdit--><g class="entity" data-qualified-name="Application de gestion h.teli.re.UserEdit" data-source-line="28" id="ent0023"><ellipse cx="691.6687" cy="110.0365" fill="#F8FAFC" rx="73.6687" ry="24.0385" style="stroke:#0B4D54;stroke-width:0.5;"/><text fill="#1F2937" font-family="Arial" font-size="14" lengthAdjust="spacing" textLength="108.1514" x="637.593" y="109.0907">Cr&#233;er ou modifier</text><text fill="#1F2937" font-family="Arial" font-size="14" lengthAdjust="spacing" textLength="65.3721" x="658.9827" y="125.1894">un compte</text></g><!--entity UserStatus--><g class="entity" data-qualified-name="Application de gestion h.teli.re.UserStatus" data-source-line="29" id="ent0024"><ellipse cx="691.7464" cy="192.7485" fill="#F8FAFC" rx="86.7464" ry="23.7505" style="stroke:#0B4D54;stroke-width:0.5;"/><text fill="#1F2937" font-family="Arial" font-size="14" lengthAdjust="spacing" textLength="129.9443" x="626.7742" y="192.2546">Activer ou d&#233;sactiver</text><text fill="#1F2937" font-family="Arial" font-size="14" lengthAdjust="spacing" textLength="65.3721" x="659.0603" y="208.3532">un compte</text></g><!--entity UserRole--><g class="entity" data-qualified-name="Application de gestion h.teli.re.UserRole" data-source-line="30" id="ent0025"><ellipse cx="691.3278" cy="268.0636" fill="#F8FAFC" rx="65.8278" ry="15.5656" style="stroke:#0B4D54;stroke-width:0.5;"/><text fill="#1F2937" font-family="Arial" font-size="14" lengthAdjust="spacing" textLength="96.4893" x="643.0832" y="272.6129">Modifier un r&#244;le</text></g><!--entity UserPassword--><g class="entity" data-qualified-name="Application de gestion h.teli.re.UserPassword" data-source-line="31" id="ent0026"><ellipse cx="691.4857" cy="343.7952" fill="#F8FAFC" rx="114.4857" ry="25.2971" style="stroke:#0B4D54;stroke-width:0.5;"/><text fill="#1F2937" font-family="Arial" font-size="14" lengthAdjust="spacing" textLength="175.082" x="603.9447" y="342.5871">R&#233;initialiser le mot de passe</text><text fill="#1F2937" font-family="Arial" font-size="14" lengthAdjust="spacing" textLength="126.0752" x="628.4481" y="358.6857">d&#8217;un autre utilisateur</text></g><!--entity Visitor--><g class="entity" data-qualified-name="Visitor" data-source-line="5" id="ent0002"><ellipse cx="403.9653" cy="470.498" fill="#F1F1F1" rx="8" ry="8" style="stroke:#0B4D54;stroke-width:0.5;"/><path d="M403.9653,478.498 L403.9653,505.498 M390.9653,486.498 L416.9653,486.498 M403.9653,505.498 L390.9653,520.498 M403.9653,505.498 L416.9653,520.498" fill="none" style="stroke:#0B4D54;stroke-width:0.5;"/><text fill="#1F2937" font-family="Arial" font-size="14" lengthAdjust="spacing" textLength="73.9307" x="367" y="535.1299">Visiteur non</text><text fill="#1F2937" font-family="Arial" font-size="14" lengthAdjust="spacing" textLength="64.6064" x="367" y="551.2285">authentifi&#233;</text></g><!--entity Staff--><g class="entity" data-qualified-name="Staff" data-source-line="6" id="ent0003"><ellipse cx="404.2344" cy="1081.498" fill="#F1F1F1" rx="8" ry="8" style="stroke:#0B4D54;stroke-width:0.5;"/><path d="M404.2344,1089.498 L404.2344,1116.498 M391.2344,1097.498 L417.2344,1097.498 M404.2344,1116.498 L391.2344,1131.498 M404.2344,1116.498 L417.2344,1131.498" fill="none" style="stroke:#0B4D54;stroke-width:0.5;"/><text fill="#1F2937" font-family="Arial" font-size="14" lengthAdjust="spacing" textLength="54.4688" x="377" y="1146.1299">Employ&#233;</text></g><!--entity Admin--><g class="entity" data-qualified-name="Admin" data-source-line="7" id="ent0004"><ellipse cx="156.1274" cy="544.498" fill="#F1F1F1" rx="8" ry="8" style="stroke:#0B4D54;stroke-width:0.5;"/><path d="M156.1274,552.498 L156.1274,579.498 M143.1274,560.498 L169.1274,560.498 M156.1274,579.498 L143.1274,594.498 M156.1274,579.498 L169.1274,594.498" fill="none" style="stroke:#0B4D54;stroke-width:0.5;"/><text fill="#1F2937" font-family="Arial" font-size="14" lengthAdjust="spacing" textLength="90.2549" x="111" y="609.1299">Administrateur</text></g><g class="entity" data-qualified-name="GMN48" data-source-line="58" id="ent0049"><path d="M6,650.998 L6,685.1953 A4,4 0 0 0 10,689.1953 L302.3711,689.1953 A4,4 0 0 0 306.3711,685.1953 L306.3711,656.998 L296.3711,646.998 L160,646.998 L156,612.058 L152,646.998 L10,646.998 A4,4 0 0 0 6,650.998" fill="#FFF8D9" style="stroke:#64748B;stroke-width:0.5;"/><path d="M296.3711,646.998 L296.3711,654.998 A2,2 0 0 0 298.3711,656.998 L306.3711,656.998 L296.3711,646.998" fill="#FFF8D9" style="stroke:#64748B;stroke-width:0.5;"/><text fill="#1F2937" font-family="Arial" font-size="14" lengthAdjust="spacing" textLength="260.7021" x="12" y="665.1299">Les op&#233;rations d&#8217;administration sont aussi</text><text fill="#1F2937" font-family="Arial" font-size="14" lengthAdjust="spacing" textLength="279.3711" x="12" y="681.2285">prot&#233;g&#233;es c&#244;t&#233; API par le middleware admin.</text></g><!--link Admin to Staff--><g class="link" data-entity-1="ent0004" data-entity-2="ent0003" data-link-type="extension" data-source-line="8" id="lnk5"><path d="M201.04,578.728 C234.73,584.728 279.73,598.308 306,628.998 C363.58,696.278 390.0479,953.2208 398.5679,1054.9608" fill="none" id="Admin-to-Staff" style="stroke:#0B4D54;stroke-width:1.2;"/><polygon fill="none" points="400.07,1072.898,404.547,1054.4601,392.5888,1055.4615,400.07,1072.898" style="stroke:#0B4D54;stroke-width:1.2;"/></g><!--link Visitor to Login--><g class="link" data-entity-1="ent0002" data-entity-2="ent0007" data-link-type="dependency" data-source-line="34" id="lnk27"><path d="M441.16,507.998 C488.87,507.998 567.5,507.998 624.79,507.998" fill="none" id="Visitor-to-Login" style="stroke:#0B4D54;stroke-width:1.2;"/><polygon fill="#0B4D54" points="630.79,507.998,621.79,503.998,625.79,507.998,621.79,511.998,630.79,507.998" style="stroke:#0B4D54;stroke-width:1.2;"/></g><!--link Staff to Login--><g class="link" data-entity-1="ent0003" data-entity-2="ent0007" data-link-type="dependency" data-source-line="35" id="lnk28"><path d="M404.9,1072.868 C405.86,991.668 414.42,796.768 471,645.998 C490.75,593.368 493.66,571.818 540,539.998 C566.65,521.708 595.7718,514.2651 625.3518,510.7551" fill="none" id="Staff-to-Login" style="stroke:#0B4D54;stroke-width:1.2;"/><polygon fill="#0B4D54" points="631.31,510.048,621.9014,507.1364,626.3448,510.6372,622.844,515.0807,631.31,510.048" style="stroke:#0B4D54;stroke-width:1.2;"/></g><!--link Staff to Logout--><g class="link" data-entity-1="ent0003" data-entity-2="ent0008" data-link-type="dependency" data-source-line="36" id="lnk29"><path d="M416.63,1149.248 C434.3,1200.178 473.14,1288.748 540,1330.998 C565.89,1347.358 592.7949,1354.8079 621.1849,1359.0179" fill="none" id="Staff-to-Logout" style="stroke:#0B4D54;stroke-width:1.2;"/><polygon fill="#0B4D54" points="627.12,1359.898,618.8041,1354.6211,622.1741,1359.1646,617.6306,1362.5346,627.12,1359.898" style="stroke:#0B4D54;stroke-width:1.2;"/></g><!--link Staff to Profile--><g class="link" data-entity-1="ent0003" data-entity-2="ent0009" data-link-type="dependency" data-source-line="37" id="lnk30"><path d="M431.09,1074.078 C455.66,1041.988 495.29,996.588 540,969.998 C563.28,956.158 585.4977,948.2765 611.0477,942.1065" fill="none" id="Staff-to-Profile" style="stroke:#0B4D54;stroke-width:1.2;"/><polygon fill="#0B4D54" points="616.88,940.698,607.1925,938.9225,612.0197,941.8717,609.0704,946.6989,616.88,940.698" style="stroke:#0B4D54;stroke-width:1.2;"/></g><!--link Profile to ProfileSecurity--><g class="link" data-entity-1="ent0009" data-entity-2="ent0010" data-link-type="dependency" data-source-line="38" id="lnk31"><path d="M691.5,905.298 C691.5,889.358 691.5,874.428 691.5,858.528" fill="none" id="Profile-to-ProfileSecurity" style="stroke:#0B4D54;stroke-width:1.2;stroke-dasharray:7,7;"/><polygon fill="#0B4D54" points="691.5,852.528,687.5,861.528,691.5,857.528,695.5,861.528,691.5,852.528" style="stroke:#0B4D54;stroke-width:1.2;"/><text fill="#1F2937" font-family="Arial" font-size="14" lengthAdjust="spacing" textLength="59.9375" x="650" y="884.1299">&#171;include&#187;</text></g><!--link Staff to Dashboard--><g class="link" data-entity-1="ent0003" data-entity-2="ent0011" data-link-type="dependency" data-source-line="39" id="lnk32"><path d="M410.17,1149.038 C417.78,1195.158 435.16,1273.888 471,1331.998 C493.12,1367.858 503.18,1376.518 540,1396.998 C561.74,1409.088 581.4725,1416.1896 605.2825,1422.1996" fill="none" id="Staff-to-Dashboard" style="stroke:#0B4D54;stroke-width:1.2;"/><polygon fill="#0B4D54" points="611.1,1423.668,603.3527,1417.587,606.2521,1422.4444,601.3947,1425.3438,611.1,1423.668" style="stroke:#0B4D54;stroke-width:1.2;"/></g><!--link Staff to Clients--><g class="link" data-entity-1="ent0003" data-entity-2="ent0012" data-link-type="dependency" data-source-line="40" id="lnk33"><path d="M407.51,1149.268 C412.61,1206.858 427.68,1317.888 471,1400.998 C492.09,1441.458 501.18,1453.038 540,1476.998 C561.35,1490.178 581.1268,1497.7939 605.0768,1504.0839" fill="none" id="Staff-to-Clients" style="stroke:#0B4D54;stroke-width:1.2;"/><polygon fill="#0B4D54" points="610.88,1505.608,603.1913,1499.4531,606.044,1504.338,601.1591,1507.1907,610.88,1505.608" style="stroke:#0B4D54;stroke-width:1.2;"/></g><!--link Staff to Rooms--><g class="link" data-entity-1="ent0003" data-entity-2="ent0013" data-link-type="dependency" data-source-line="41" id="lnk34"><path d="M431.09,1110.998 C471.01,1110.998 542.93,1110.998 603,1110.998" fill="none" id="Staff-to-Rooms" style="stroke:#0B4D54;stroke-width:1.2;"/><polygon fill="#0B4D54" points="609,1110.998,600,1106.998,604,1110.998,600,1114.998,609,1110.998" style="stroke:#0B4D54;stroke-width:1.2;"/></g><!--link Staff to Tariffs--><g class="link" data-entity-1="ent0003" data-entity-2="ent0015" data-link-type="dependency" data-source-line="42" id="lnk35"><path d="M405.35,1149.088 C407.36,1218.298 418.05,1367.898 471,1479.998 C491.2,1522.758 499.45,1536.658 540,1560.998 C567.06,1577.238 595.2127,1584.6528 624.1027,1588.8628" fill="none" id="Staff-to-Tariffs" style="stroke:#0B4D54;stroke-width:1.2;"/><polygon fill="#0B4D54" points="630.04,1589.728,621.7109,1584.472,625.0923,1589.007,620.5573,1592.3884,630.04,1589.728" style="stroke:#0B4D54;stroke-width:1.2;"/></g><!--link Staff to Reservations--><g class="link" data-entity-1="ent0003" data-entity-2="ent0016" data-link-type="dependency" data-source-line="43" id="lnk36"><path d="M407.31,1149.098 C413.61,1244.488 433.18,1491.048 471,1562.998 C490.46,1600.018 503.12,1607.268 540,1626.998 C564.16,1639.928 587.0844,1647.0526 612.9944,1652.4126" fill="none" id="Staff-to-Reservations" style="stroke:#0B4D54;stroke-width:1.2;"/><polygon fill="#0B4D54" points="618.87,1653.628,610.8669,1647.8878,613.9737,1652.6151,609.2463,1655.7219,618.87,1653.628" style="stroke:#0B4D54;stroke-width:1.2;"/></g><!--link Staff to Payments--><g class="link" data-entity-1="ent0003" data-entity-2="ent0017" data-link-type="dependency" data-source-line="44" id="lnk37"><path d="M405.26,1072.798 C407.04,999.828 417.28,836.858 471,712.998 C491.05,666.758 498.16,651.098 540,622.998 C560.01,609.558 578.4965,602.0309 601.6665,595.9509" fill="none" id="Staff-to-Payments" style="stroke:#0B4D54;stroke-width:1.2;"/><polygon fill="#0B4D54" points="607.47,594.428,597.7495,592.8434,602.6337,595.6971,599.78,600.5814,607.47,594.428" style="stroke:#0B4D54;stroke-width:1.2;"/></g><!--link Staff to Complaints--><g class="link" data-entity-1="ent0003" data-entity-2="ent0018" data-link-type="dependency" data-source-line="45" id="lnk38"><path d="M404.08,1072.758 C404.39,988.288 418.45,786.158 540,695.998 C560.82,680.548 581.4525,672.8442 606.4025,667.7242" fill="none" id="Staff-to-Complaints" style="stroke:#0B4D54;stroke-width:1.2;"/><polygon fill="#0B4D54" points="612.28,666.518,602.6596,664.4089,607.3821,667.5232,604.2678,672.2456,612.28,666.518" style="stroke:#0B4D54;stroke-width:1.2;"/></g><!--link Staff to Equipment--><g class="link" data-entity-1="ent0003" data-entity-2="ent0019" data-link-type="dependency" data-source-line="46" id="lnk39"><path d="M431.1,1142.188 C456.41,1170.738 497.17,1212.468 540,1238.998 C569.09,1257.018 599.2356,1268.6527 628.6656,1277.7127" fill="none" id="Staff-to-Equipment" style="stroke:#0B4D54;stroke-width:1.2;"/><polygon fill="#0B4D54" points="634.4,1279.478,626.9753,1273.0071,629.6213,1278.0069,624.6215,1280.653,634.4,1279.478" style="stroke:#0B4D54;stroke-width:1.2;"/></g><!--link Staff to Lists--><g class="link" data-entity-1="ent0003" data-entity-2="ent0021" data-link-type="dependency" data-source-line="47" id="lnk40"><path d="M410.27,1072.848 C421.58,1005.518 454.51,865.398 540,787.998 C554.28,775.068 566.4733,767.8342 584.8133,761.1442" fill="none" id="Staff-to-Lists" style="stroke:#0B4D54;stroke-width:1.2;"/><polygon fill="#0B4D54" points="590.45,759.088,580.6242,758.4145,585.7528,760.8015,583.3657,765.93,590.45,759.088" style="stroke:#0B4D54;stroke-width:1.2;"/></g><!--link Rooms to CurrentOccupation--><g class="link" data-entity-1="ent0013" data-entity-2="ent0014" data-link-type="dependency" data-source-line="48" id="lnk41"><path d="M691.5,1086.788 C691.5,1070.948 691.5,1056.358 691.5,1040.638" fill="none" id="Rooms-to-CurrentOccupation" style="stroke:#0B4D54;stroke-width:1.2;stroke-dasharray:7,7;"/><polygon fill="#0B4D54" points="691.5,1034.638,687.5,1043.638,691.5,1039.638,695.5,1043.638,691.5,1034.638" style="stroke:#0B4D54;stroke-width:1.2;"/><text fill="#1F2937" font-family="Arial" font-size="14" lengthAdjust="spacing" textLength="59.9375" x="650" y="1065.8799">&#171;include&#187;</text></g><!--link Equipment to EquipmentImpact--><g class="link" data-entity-1="ent0019" data-entity-2="ent0020" data-link-type="dependency" data-source-line="49" id="lnk42"><path d="M691.5,1274.168 C691.5,1259.068 691.5,1244.158 691.5,1227.758" fill="none" id="Equipment-to-EquipmentImpact" style="stroke:#0B4D54;stroke-width:1.2;stroke-dasharray:7,7;"/><polygon fill="#0B4D54" points="691.5,1221.758,687.5,1230.758,691.5,1226.758,695.5,1230.758,691.5,1221.758" style="stroke:#0B4D54;stroke-width:1.2;"/><text fill="#1F2937" font-family="Arial" font-size="14" lengthAdjust="spacing" textLength="59.9375" x="650" y="1253.1299">&#171;include&#187;</text></g><!--link Admin to Users--><g class="link" data-entity-1="ent0004" data-entity-2="ent0022" data-link-type="dependency" data-source-line="51" id="lnk43"><path d="M201.1,538.238 C258.89,494.298 365.35,423.068 471,402.998 C533.26,391.168 600.1532,407.7648 644.2632,422.6048" fill="none" id="Admin-to-Users" style="stroke:#0B4D54;stroke-width:1.2;"/><polygon fill="#0B4D54" points="649.95,424.518,642.6953,417.857,645.211,422.9237,640.1443,425.4394,649.95,424.518" style="stroke:#0B4D54;stroke-width:1.2;"/></g><!--link Users to UserEdit--><g class="link" data-entity-1="ent0022" data-entity-2="ent0023" data-link-type="dependency" data-source-line="52" id="lnk44"><path d="M627.51,429.308 C598.04,421.668 564.31,408.728 540,386.998 C510.95,361.028 510.66,345.988 502,307.998 C488.9,250.558 487.93,202.938 540,150.998 C560.84,130.218 585.1525,120.7725 613.1325,115.5325" fill="none" id="Users-to-UserEdit" style="stroke:#0B4D54;stroke-width:1.2;stroke-dasharray:7,7;"/><polygon fill="#0B4D54" points="619.03,114.428,609.4475,112.1531,614.1154,115.3484,610.9201,120.0164,619.03,114.428" style="stroke:#0B4D54;stroke-width:1.2;"/><text fill="#1F2937" font-family="Arial" font-size="14" lengthAdjust="spacing" textLength="59.9375" x="472" y="304.1299">&#171;include&#187;</text></g><!--link Users to UserStatus--><g class="link" data-entity-1="ent0022" data-entity-2="ent0024" data-link-type="dependency" data-source-line="53" id="lnk45"><path d="M624.01,430.468 C594.67,423.108 562.04,410.068 540,386.998 C493.98,338.828 461.21,294.678 502,241.998 C526.03,210.968 561.0005,198.7349 598.6805,193.8149" fill="none" id="Users-to-UserStatus" style="stroke:#0B4D54;stroke-width:1.2;stroke-dasharray:7,7;"/><polygon fill="#0B4D54" points="604.63,193.038,595.1879,190.237,599.6721,193.6854,596.2237,198.1696,604.63,193.038" style="stroke:#0B4D54;stroke-width:1.2;"/><text fill="#1F2937" font-family="Arial" font-size="14" lengthAdjust="spacing" textLength="59.9375" x="472" y="256.1299">&#171;include&#187;</text></g><!--link Users to UserRole--><g class="link" data-entity-1="ent0022" data-entity-2="ent0025" data-link-type="dependency" data-source-line="54" id="lnk46"><path d="M635.03,452.598 C591.93,458.528 534.58,457.818 502,421.998 C487.61,406.178 478.97,354.088 540,300.998 C563.36,280.678 590.3414,272.6618 619.5514,269.2118" fill="none" id="Users-to-UserRole" style="stroke:#0B4D54;stroke-width:1.2;stroke-dasharray:7,7;"/><polygon fill="#0B4D54" points="625.51,268.508,616.1029,265.5913,620.5445,269.0945,617.0413,273.5361,625.51,268.508" style="stroke:#0B4D54;stroke-width:1.2;"/><text fill="#1F2937" font-family="Arial" font-size="14" lengthAdjust="spacing" textLength="59.9375" x="472" y="418.1299">&#171;include&#187;</text></g><!--link Users to UserPassword--><g class="link" data-entity-1="ent0022" data-entity-2="ent0026" data-link-type="dependency" data-source-line="55" id="lnk47"><path d="M691.5,421.938 C691.5,407.168 691.5,392.098 691.5,375.578" fill="none" id="Users-to-UserPassword" style="stroke:#0B4D54;stroke-width:1.2;stroke-dasharray:7,7;"/><polygon fill="#0B4D54" points="691.5,369.578,687.5,378.578,691.5,374.578,695.5,378.578,691.5,369.578" style="stroke:#0B4D54;stroke-width:1.2;"/><text fill="#1F2937" font-family="Arial" font-size="14" lengthAdjust="spacing" textLength="59.9375" x="650" y="400.8799">&#171;include&#187;</text></g><?plantuml-src VLLBRjim5Dph5ApNIGvG10QC92W2f6ZWj5rvGqkKJO0YLV8ngT4Mo26wwGtYVMwWc_Ga7PAIHRjs5lwGd7a_pdjy9tMfV2KOhKKZBbhVg4A9cXWPPkLgJQoILfGaZIv8aXBiMlALvKqZ65WbTwpw-_p7arJIyG1ZVvz_CxTnrBq08pK9goDs9LmyNtUl99JiNgme2bwIiMpoLJf9mbkcZLvexX6D9bdBRZjXS16FZHtGDqshpAO_Uo1UryF9h6gabeui3zRYUTmguZSxF_yvxGb5o8hh5JAQpDfMoJ95VppG2VjHCEQTGC8WF23bCKYH7DsP5HpbAAJTRKkZDLoD8ECfHrqPxRp2EHF46bD5Wmlj441hJIrLvDt7lo8dVkonB40RGo7qbZid5XgM76Vjsf39sG-Yz5RIvhXxL8BuKWdkWwMbiLNaNdEtNXfkgvpreTlQI76iL19bS0lTSakoz5XQ5t9nfiJzKRTrqSvLmfsoikRDqWeNOrT12Q1oYiovCOqx4JCkmfIbR-FbGJabUQ6KI1wzjN3vQNT-mZTnA-iKvEVmjpuLf4KkmZv6Mma_5-D6JhhHLgo23jErbaF02ntij5oYsL2CT3byqxnH6JWj5MyofrS6-kVoDANRVlEopLpSX7LOveJhRbkZML8HPTEYTf0TAg_uS1txvDk8oKtCHRaMDdpE60GMqZrZC6Lb4t95vk9xQoprSM54KBXhn8zq8BKKtHssNN4Ybs6oG189_GKLtrS3AWImyLdtU1szaDXHRYgv5_eCC-qnqT2aZgVbCIRc1NbtjFC0jjsh6h5piz-ZyswB4fFao26rs7wZnjcf6MQ95NcgEuFtm3sX5OjVHT5FGKonQJziuYWxjGvpPjmO1aZ_oowcXrE1lMUNb_rpC9rcr742Z7j3DuyxgKl7zT1A6I9lbYooGV-PzL7Xu-OeuYpDA9teEcJqNySVvBGp4S07kZw0xbwCQQ-u-1ruWveE27ldIJDl8O9ItZeVBlumB6qe36SYqp1JzwyROtTe5TEYRL9vuwFCnySmb0BF145fpadWyRHWCg_GEUX7l7FTbitkRo7B959PLKeySOWo6haeXAvOSFqF?></g></svg>